<mxfile host="app.diagrams.net" modified="2024-07-10T14:38:24.629Z" agent="Mozilla/5.0 (Windows NT 10.0; Win64; x64) AppleWebKit/537.36 (KHTML, like Gecko) Chrome/126.0.0.0 Safari/537.36" etag="Bb3gKV5uoHLxxDP1vBEb" version="24.6.4" type="device">
  <diagram name="Page-1" id="XVE30UEcLrAvVdw_q4Py">
    <mxGraphModel dx="941" dy="679" grid="1" gridSize="10" guides="1" tooltips="1" connect="1" arrows="1" fold="1" page="1" pageScale="1" pageWidth="850" pageHeight="1100" math="0" shadow="0">
      <root>
        <mxCell id="0" />
        <mxCell id="1" parent="0" />
        <mxCell id="_Rt6XsdOSW0PwKyBmLgm-102" value="" style="rounded=0;whiteSpace=wrap;html=1;fontFamily=Helvetica;fontSize=11;fontColor=default;labelBackgroundColor=default;strokeColor=none;fillColor=default;" parent="1" vertex="1">
          <mxGeometry x="20" y="20" width="640" height="650" as="geometry" />
        </mxCell>
        <mxCell id="_Rt6XsdOSW0PwKyBmLgm-145" value="lib/src/ui/fragments" style="html=1;whiteSpace=wrap;fontFamily=Helvetica;fontSize=11;fontColor=#808080;labelBackgroundColor=default;fillColor=none;dashed=1;strokeWidth=1;strokeColor=#808080;align=left;verticalAlign=bottom;spacingLeft=5;" parent="1" vertex="1">
          <mxGeometry x="40" y="530" width="600" height="120" as="geometry" />
        </mxCell>
        <mxCell id="_Rt6XsdOSW0PwKyBmLgm-144" value="lib/src/ui" style="html=1;whiteSpace=wrap;fontFamily=Helvetica;fontSize=11;fontColor=#808080;labelBackgroundColor=default;fillColor=none;dashed=1;strokeWidth=1;strokeColor=#808080;align=left;verticalAlign=top;spacingLeft=5;" parent="1" vertex="1">
          <mxGeometry x="40" y="40" width="400" height="470" as="geometry" />
        </mxCell>
        <mxCell id="_Rt6XsdOSW0PwKyBmLgm-130" style="edgeStyle=orthogonalEdgeStyle;shape=connector;rounded=0;orthogonalLoop=1;jettySize=auto;html=1;strokeColor=default;align=center;verticalAlign=middle;fontFamily=Helvetica;fontSize=11;fontColor=default;labelBackgroundColor=default;endArrow=block;endFill=1;" parent="1" source="_Rt6XsdOSW0PwKyBmLgm-127" target="_Rt6XsdOSW0PwKyBmLgm-129" edge="1">
          <mxGeometry relative="1" as="geometry" />
        </mxCell>
        <mxCell id="_Rt6XsdOSW0PwKyBmLgm-127" value="&lt;b&gt;&lt;font style=&quot;font-size: 13px;&quot;&gt;MainScreen&lt;/font&gt;&lt;/b&gt;" style="swimlane;fontStyle=0;childLayout=stackLayout;horizontal=1;startSize=26;fillColor=#f8cecc;horizontalStack=0;resizeParent=1;resizeParentMax=0;resizeLast=0;collapsible=1;marginBottom=0;whiteSpace=wrap;html=1;strokeColor=#b85450;" parent="1" vertex="1">
          <mxGeometry x="260" y="160" width="160" height="66" as="geometry" />
        </mxCell>
        <mxCell id="_Rt6XsdOSW0PwKyBmLgm-128" value="&lt;div&gt;&lt;font color=&quot;#808080&quot;&gt;&lt;span style=&quot;font-size: 11px;&quot;&gt;&lt;b&gt;Screen layer&lt;/b&gt;&lt;/span&gt;&lt;/font&gt;&lt;/div&gt;&lt;i style=&quot;color: rgb(51, 51, 51);&quot;&gt;&lt;font style=&quot;font-size: 11px;&quot; color=&quot;#808080&quot;&gt;StatelessWidget&lt;/font&gt;&lt;/i&gt;" style="text;strokeColor=none;fillColor=none;align=center;verticalAlign=top;spacingLeft=4;spacingRight=4;overflow=hidden;rotatable=0;points=[[0,0.5],[1,0.5]];portConstraint=eastwest;whiteSpace=wrap;html=1;" parent="_Rt6XsdOSW0PwKyBmLgm-127" vertex="1">
          <mxGeometry y="26" width="160" height="40" as="geometry" />
        </mxCell>
        <mxCell id="_Rt6XsdOSW0PwKyBmLgm-135" style="edgeStyle=orthogonalEdgeStyle;shape=connector;rounded=0;orthogonalLoop=1;jettySize=auto;html=1;strokeColor=default;align=center;verticalAlign=middle;fontFamily=Helvetica;fontSize=11;fontColor=default;labelBackgroundColor=default;endArrow=block;endFill=1;" parent="1" source="_Rt6XsdOSW0PwKyBmLgm-129" target="_Rt6XsdOSW0PwKyBmLgm-134" edge="1">
          <mxGeometry relative="1" as="geometry" />
        </mxCell>
        <mxCell id="_Rt6XsdOSW0PwKyBmLgm-151" style="edgeStyle=orthogonalEdgeStyle;shape=connector;rounded=0;orthogonalLoop=1;jettySize=auto;html=1;strokeColor=default;align=center;verticalAlign=middle;fontFamily=Helvetica;fontSize=11;fontColor=default;labelBackgroundColor=default;endArrow=block;endFill=1;" parent="1" source="_Rt6XsdOSW0PwKyBmLgm-129" target="_Rt6XsdOSW0PwKyBmLgm-149" edge="1">
          <mxGeometry relative="1" as="geometry">
            <Array as="points">
              <mxPoint x="340" y="320" />
              <mxPoint x="540" y="320" />
            </Array>
          </mxGeometry>
        </mxCell>
        <mxCell id="_Rt6XsdOSW0PwKyBmLgm-129" value="&lt;font color=&quot;#000000&quot; style=&quot;font-size: 12px;&quot;&gt;&lt;i&gt;Flutter:&lt;/i&gt;&lt;/font&gt;&lt;div&gt;&lt;font color=&quot;#000000&quot; style=&quot;font-size: 13px;&quot;&gt;&lt;b&gt;Scaffold&lt;/b&gt;&lt;/font&gt;&lt;/div&gt;" style="whiteSpace=wrap;html=1;align=center;fillColor=#f5f5f5;fontColor=#333333;strokeColor=#666666;" parent="1" vertex="1">
          <mxGeometry x="260" y="260" width="160" height="40" as="geometry" />
        </mxCell>
        <mxCell id="_Rt6XsdOSW0PwKyBmLgm-133" style="edgeStyle=orthogonalEdgeStyle;shape=connector;rounded=0;orthogonalLoop=1;jettySize=auto;html=1;strokeColor=default;align=center;verticalAlign=middle;fontFamily=Helvetica;fontSize=11;fontColor=default;labelBackgroundColor=default;endArrow=block;endFill=1;" parent="1" source="_Rt6XsdOSW0PwKyBmLgm-131" target="_Rt6XsdOSW0PwKyBmLgm-127" edge="1">
          <mxGeometry relative="1" as="geometry" />
        </mxCell>
        <mxCell id="_Rt6XsdOSW0PwKyBmLgm-131" value="&lt;b&gt;&lt;font style=&quot;font-size: 13px;&quot;&gt;AppRoot&lt;/font&gt;&lt;/b&gt;" style="swimlane;fontStyle=0;childLayout=stackLayout;horizontal=1;startSize=26;fillColor=#e1d5e7;horizontalStack=0;resizeParent=1;resizeParentMax=0;resizeLast=0;collapsible=1;marginBottom=0;whiteSpace=wrap;html=1;strokeColor=#9673a6;" parent="1" vertex="1">
          <mxGeometry x="260" y="60" width="160" height="70" as="geometry" />
        </mxCell>
        <mxCell id="_Rt6XsdOSW0PwKyBmLgm-132" value="&lt;div&gt;&lt;span style=&quot;color: rgb(51, 51, 51);&quot;&gt;&lt;font style=&quot;font-size: 11px;&quot; color=&quot;#808080&quot;&gt;&lt;b style=&quot;&quot;&gt;App layer&lt;/b&gt;&lt;/font&gt;&lt;/span&gt;&lt;/div&gt;&lt;i style=&quot;color: rgb(51, 51, 51);&quot;&gt;&lt;font style=&quot;font-size: 11px;&quot; color=&quot;#808080&quot;&gt;UI Root class&lt;/font&gt;&lt;/i&gt;" style="text;strokeColor=none;fillColor=none;align=center;verticalAlign=top;spacingLeft=4;spacingRight=4;overflow=hidden;rotatable=0;points=[[0,0.5],[1,0.5]];portConstraint=eastwest;whiteSpace=wrap;html=1;" parent="_Rt6XsdOSW0PwKyBmLgm-131" vertex="1">
          <mxGeometry y="26" width="160" height="44" as="geometry" />
        </mxCell>
        <mxCell id="_Rt6XsdOSW0PwKyBmLgm-138" style="edgeStyle=orthogonalEdgeStyle;shape=connector;rounded=0;orthogonalLoop=1;jettySize=auto;html=1;strokeColor=default;align=center;verticalAlign=middle;fontFamily=Helvetica;fontSize=11;fontColor=default;labelBackgroundColor=default;endArrow=block;endFill=1;" parent="1" source="_Rt6XsdOSW0PwKyBmLgm-134" target="_Rt6XsdOSW0PwKyBmLgm-136" edge="1">
          <mxGeometry relative="1" as="geometry" />
        </mxCell>
        <mxCell id="_Rt6XsdOSW0PwKyBmLgm-141" style="edgeStyle=orthogonalEdgeStyle;shape=connector;rounded=0;orthogonalLoop=1;jettySize=auto;html=1;strokeColor=default;align=center;verticalAlign=middle;fontFamily=Helvetica;fontSize=11;fontColor=default;labelBackgroundColor=default;endArrow=block;endFill=1;" parent="1" source="_Rt6XsdOSW0PwKyBmLgm-134" target="_Rt6XsdOSW0PwKyBmLgm-139" edge="1">
          <mxGeometry relative="1" as="geometry" />
        </mxCell>
        <mxCell id="_Rt6XsdOSW0PwKyBmLgm-134" value="&lt;font color=&quot;#000000&quot; style=&quot;font-size: 12px;&quot;&gt;&lt;i&gt;Flutter:&lt;/i&gt;&lt;/font&gt;&lt;div&gt;&lt;span style=&quot;color: rgb(0, 0, 0); font-size: 13px;&quot;&gt;&lt;b&gt;TabBarView&lt;/b&gt;&lt;/span&gt;&lt;br&gt;&lt;/div&gt;" style="whiteSpace=wrap;html=1;align=center;fillColor=#f5f5f5;fontColor=#333333;strokeColor=#666666;" parent="1" vertex="1">
          <mxGeometry x="160" y="340" width="160" height="40" as="geometry" />
        </mxCell>
        <mxCell id="_Rt6XsdOSW0PwKyBmLgm-146" style="edgeStyle=orthogonalEdgeStyle;shape=connector;rounded=0;orthogonalLoop=1;jettySize=auto;html=1;strokeColor=default;align=center;verticalAlign=middle;fontFamily=Helvetica;fontSize=11;fontColor=default;labelBackgroundColor=default;endArrow=block;endFill=1;" parent="1" source="_Rt6XsdOSW0PwKyBmLgm-136" target="_Rt6XsdOSW0PwKyBmLgm-142" edge="1">
          <mxGeometry relative="1" as="geometry" />
        </mxCell>
        <mxCell id="_Rt6XsdOSW0PwKyBmLgm-136" value="&lt;b&gt;&lt;font style=&quot;font-size: 13px;&quot;&gt;ReceiverPage&lt;/font&gt;&lt;/b&gt;" style="swimlane;fontStyle=0;childLayout=stackLayout;horizontal=1;startSize=26;fillColor=#ffe6cc;horizontalStack=0;resizeParent=1;resizeParentMax=0;resizeLast=0;collapsible=1;marginBottom=0;whiteSpace=wrap;html=1;strokeColor=#d79b00;" parent="1" vertex="1">
          <mxGeometry x="60" y="420" width="160" height="66" as="geometry" />
        </mxCell>
        <mxCell id="_Rt6XsdOSW0PwKyBmLgm-137" value="&lt;div&gt;&lt;font color=&quot;#808080&quot;&gt;&lt;span style=&quot;font-size: 11px;&quot;&gt;&lt;b&gt;Page l&lt;/b&gt;&lt;/span&gt;&lt;/font&gt;&lt;b style=&quot;background-color: initial; color: rgb(128, 128, 128); font-size: 11px;&quot;&gt;ayer&lt;/b&gt;&lt;/div&gt;&lt;i style=&quot;color: rgb(51, 51, 51);&quot;&gt;&lt;font style=&quot;font-size: 11px;&quot; color=&quot;#808080&quot;&gt;StatelessWidget&lt;/font&gt;&lt;/i&gt;" style="text;strokeColor=none;fillColor=none;align=center;verticalAlign=top;spacingLeft=4;spacingRight=4;overflow=hidden;rotatable=0;points=[[0,0.5],[1,0.5]];portConstraint=eastwest;whiteSpace=wrap;html=1;" parent="_Rt6XsdOSW0PwKyBmLgm-136" vertex="1">
          <mxGeometry y="26" width="160" height="40" as="geometry" />
        </mxCell>
        <mxCell id="_Rt6XsdOSW0PwKyBmLgm-139" value="&lt;b&gt;&lt;font style=&quot;font-size: 13px;&quot;&gt;SenderPage&lt;/font&gt;&lt;/b&gt;" style="swimlane;fontStyle=0;childLayout=stackLayout;horizontal=1;startSize=26;fillColor=#ffe6cc;horizontalStack=0;resizeParent=1;resizeParentMax=0;resizeLast=0;collapsible=1;marginBottom=0;whiteSpace=wrap;html=1;strokeColor=#d79b00;" parent="1" vertex="1">
          <mxGeometry x="260" y="420" width="160" height="66" as="geometry" />
        </mxCell>
        <mxCell id="_Rt6XsdOSW0PwKyBmLgm-140" value="&lt;div&gt;&lt;font color=&quot;#808080&quot;&gt;&lt;span style=&quot;font-size: 11px;&quot;&gt;&lt;b&gt;Page l&lt;/b&gt;&lt;/span&gt;&lt;/font&gt;&lt;b style=&quot;background-color: initial; color: rgb(128, 128, 128); font-size: 11px;&quot;&gt;ayer&lt;/b&gt;&lt;/div&gt;&lt;i style=&quot;color: rgb(51, 51, 51);&quot;&gt;&lt;font style=&quot;font-size: 11px;&quot; color=&quot;#808080&quot;&gt;StatelessWidget&lt;/font&gt;&lt;/i&gt;" style="text;strokeColor=none;fillColor=none;align=center;verticalAlign=top;spacingLeft=4;spacingRight=4;overflow=hidden;rotatable=0;points=[[0,0.5],[1,0.5]];portConstraint=eastwest;whiteSpace=wrap;html=1;" parent="_Rt6XsdOSW0PwKyBmLgm-139" vertex="1">
          <mxGeometry y="26" width="160" height="40" as="geometry" />
        </mxCell>
        <mxCell id="_Rt6XsdOSW0PwKyBmLgm-142" value="&lt;b&gt;&lt;font style=&quot;font-size: 13px;&quot;&gt;SourceSelector&lt;/font&gt;&lt;/b&gt;" style="swimlane;fontStyle=0;childLayout=stackLayout;horizontal=1;startSize=26;fillColor=#fff2cc;horizontalStack=0;resizeParent=1;resizeParentMax=0;resizeLast=0;collapsible=1;marginBottom=0;whiteSpace=wrap;html=1;strokeColor=#d6b656;" parent="1" vertex="1">
          <mxGeometry x="60" y="550" width="160" height="66" as="geometry" />
        </mxCell>
        <mxCell id="_Rt6XsdOSW0PwKyBmLgm-143" value="&lt;div&gt;&lt;font color=&quot;#808080&quot;&gt;&lt;span style=&quot;font-size: 11px;&quot;&gt;&lt;b&gt;Fragment l&lt;/b&gt;&lt;/span&gt;&lt;/font&gt;&lt;b style=&quot;background-color: initial; color: rgb(128, 128, 128); font-size: 11px;&quot;&gt;ayer&lt;/b&gt;&lt;/div&gt;&lt;i style=&quot;color: rgb(51, 51, 51);&quot;&gt;&lt;font style=&quot;font-size: 11px;&quot; color=&quot;#808080&quot;&gt;StatelessWidget&lt;/font&gt;&lt;/i&gt;" style="text;strokeColor=none;fillColor=none;align=center;verticalAlign=top;spacingLeft=4;spacingRight=4;overflow=hidden;rotatable=0;points=[[0,0.5],[1,0.5]];portConstraint=eastwest;whiteSpace=wrap;html=1;" parent="_Rt6XsdOSW0PwKyBmLgm-142" vertex="1">
          <mxGeometry y="26" width="160" height="40" as="geometry" />
        </mxCell>
        <mxCell id="_Rt6XsdOSW0PwKyBmLgm-147" value="&lt;b style=&quot;font-size: 13px;&quot;&gt;MessagePopUp&lt;/b&gt;" style="swimlane;fontStyle=0;childLayout=stackLayout;horizontal=1;startSize=26;fillColor=#fff2cc;horizontalStack=0;resizeParent=1;resizeParentMax=0;resizeLast=0;collapsible=1;marginBottom=0;whiteSpace=wrap;html=1;strokeColor=#d6b656;" parent="1" vertex="1">
          <mxGeometry x="260" y="550" width="160" height="66" as="geometry" />
        </mxCell>
        <mxCell id="_Rt6XsdOSW0PwKyBmLgm-148" value="&lt;div&gt;&lt;font color=&quot;#808080&quot;&gt;&lt;span style=&quot;font-size: 11px;&quot;&gt;&lt;b&gt;Fragment l&lt;/b&gt;&lt;/span&gt;&lt;/font&gt;&lt;b style=&quot;background-color: initial; color: rgb(128, 128, 128); font-size: 11px;&quot;&gt;ayer&lt;/b&gt;&lt;/div&gt;&lt;i style=&quot;color: rgb(51, 51, 51);&quot;&gt;&lt;font style=&quot;font-size: 11px;&quot; color=&quot;#808080&quot;&gt;StatelessWidget&lt;/font&gt;&lt;/i&gt;" style="text;strokeColor=none;fillColor=none;align=center;verticalAlign=top;spacingLeft=4;spacingRight=4;overflow=hidden;rotatable=0;points=[[0,0.5],[1,0.5]];portConstraint=eastwest;whiteSpace=wrap;html=1;" parent="_Rt6XsdOSW0PwKyBmLgm-147" vertex="1">
          <mxGeometry y="26" width="160" height="40" as="geometry" />
        </mxCell>
        <mxCell id="_Rt6XsdOSW0PwKyBmLgm-149" value="&lt;b&gt;&lt;font style=&quot;font-size: 13px;&quot;&gt;SettingsPane&lt;/font&gt;&lt;/b&gt;" style="swimlane;fontStyle=0;childLayout=stackLayout;horizontal=1;startSize=26;fillColor=#fff2cc;horizontalStack=0;resizeParent=1;resizeParentMax=0;resizeLast=0;collapsible=1;marginBottom=0;whiteSpace=wrap;html=1;strokeColor=#d6b656;" parent="1" vertex="1">
          <mxGeometry x="460" y="550" width="160" height="66" as="geometry" />
        </mxCell>
        <mxCell id="_Rt6XsdOSW0PwKyBmLgm-150" value="&lt;div&gt;&lt;font color=&quot;#808080&quot;&gt;&lt;span style=&quot;font-size: 11px;&quot;&gt;&lt;b&gt;Fragment l&lt;/b&gt;&lt;/span&gt;&lt;/font&gt;&lt;b style=&quot;background-color: initial; color: rgb(128, 128, 128); font-size: 11px;&quot;&gt;ayer&lt;/b&gt;&lt;/div&gt;&lt;i style=&quot;color: rgb(51, 51, 51);&quot;&gt;&lt;font style=&quot;font-size: 11px;&quot; color=&quot;#808080&quot;&gt;StatelessWidget&lt;/font&gt;&lt;/i&gt;" style="text;strokeColor=none;fillColor=none;align=center;verticalAlign=top;spacingLeft=4;spacingRight=4;overflow=hidden;rotatable=0;points=[[0,0.5],[1,0.5]];portConstraint=eastwest;whiteSpace=wrap;html=1;" parent="_Rt6XsdOSW0PwKyBmLgm-149" vertex="1">
          <mxGeometry y="26" width="160" height="40" as="geometry" />
        </mxCell>
      </root>
    </mxGraphModel>
  </diagram>
</mxfile>
